<mxfile host="app.diagrams.net" modified="2020-12-06T23:18:03.058Z" agent="5.0 (Windows NT 10.0; Win64; x64) AppleWebKit/537.36 (KHTML, like Gecko) Chrome/87.0.4280.88 Safari/537.36" etag="G5K_5gI11m-61kIrBQjb" version="13.10.9" type="github">
  <diagram id="Gzh830ZmulrSo7HcPigp" name="Page-1">
    <mxGraphModel dx="1240" dy="743" grid="1" gridSize="10" guides="1" tooltips="1" connect="1" arrows="1" fold="1" page="1" pageScale="1" pageWidth="850" pageHeight="1100" math="0" shadow="0">
      <root>
        <mxCell id="0" />
        <mxCell id="1" parent="0" />
        <mxCell id="NGvDMcpf5pS3OicIXnfx-1" value="Customer" style="shape=umlActor;verticalLabelPosition=bottom;verticalAlign=top;html=1;" vertex="1" parent="1">
          <mxGeometry x="70" y="60" width="30" height="60" as="geometry" />
        </mxCell>
        <mxCell id="NGvDMcpf5pS3OicIXnfx-2" value="Restaurant Owner" style="shape=umlActor;verticalLabelPosition=bottom;verticalAlign=top;html=1;" vertex="1" parent="1">
          <mxGeometry x="700" y="60" width="30" height="60" as="geometry" />
        </mxCell>
        <mxCell id="NGvDMcpf5pS3OicIXnfx-5" value="Search For Restaurant" style="ellipse;whiteSpace=wrap;html=1;" vertex="1" parent="1">
          <mxGeometry x="210" y="55" width="140" height="70" as="geometry" />
        </mxCell>
        <mxCell id="NGvDMcpf5pS3OicIXnfx-6" value="Select A Restaurant" style="ellipse;whiteSpace=wrap;html=1;" vertex="1" parent="1">
          <mxGeometry x="210" y="140" width="140" height="70" as="geometry" />
        </mxCell>
        <mxCell id="NGvDMcpf5pS3OicIXnfx-7" value="Select Items From Menu" style="ellipse;whiteSpace=wrap;html=1;" vertex="1" parent="1">
          <mxGeometry x="210" y="230" width="140" height="70" as="geometry" />
        </mxCell>
        <mxCell id="NGvDMcpf5pS3OicIXnfx-8" value="Login" style="ellipse;whiteSpace=wrap;html=1;" vertex="1" parent="1">
          <mxGeometry x="457" y="55" width="140" height="70" as="geometry" />
        </mxCell>
        <mxCell id="NGvDMcpf5pS3OicIXnfx-9" value="Add Restaurant Details" style="ellipse;whiteSpace=wrap;html=1;" vertex="1" parent="1">
          <mxGeometry x="457" y="140" width="140" height="70" as="geometry" />
        </mxCell>
        <mxCell id="NGvDMcpf5pS3OicIXnfx-10" value="Update Restaurant Details" style="ellipse;whiteSpace=wrap;html=1;" vertex="1" parent="1">
          <mxGeometry x="457" y="230" width="140" height="70" as="geometry" />
        </mxCell>
        <mxCell id="NGvDMcpf5pS3OicIXnfx-11" value="Add Menu Items And Cost" style="ellipse;whiteSpace=wrap;html=1;" vertex="1" parent="1">
          <mxGeometry x="457" y="320" width="140" height="70" as="geometry" />
        </mxCell>
        <mxCell id="NGvDMcpf5pS3OicIXnfx-12" value="Update Menu Items And Cost" style="ellipse;whiteSpace=wrap;html=1;" vertex="1" parent="1">
          <mxGeometry x="457" y="410" width="140" height="70" as="geometry" />
        </mxCell>
        <mxCell id="NGvDMcpf5pS3OicIXnfx-13" value="Admin" style="shape=umlActor;verticalLabelPosition=bottom;verticalAlign=top;html=1;" vertex="1" parent="1">
          <mxGeometry x="70" y="320" width="30" height="60" as="geometry" />
        </mxCell>
        <mxCell id="NGvDMcpf5pS3OicIXnfx-14" value="Login" style="ellipse;whiteSpace=wrap;html=1;" vertex="1" parent="1">
          <mxGeometry x="210" y="315" width="140" height="70" as="geometry" />
        </mxCell>
        <mxCell id="NGvDMcpf5pS3OicIXnfx-15" value="Approve Restaurants" style="ellipse;whiteSpace=wrap;html=1;" vertex="1" parent="1">
          <mxGeometry x="210" y="400" width="140" height="70" as="geometry" />
        </mxCell>
        <mxCell id="NGvDMcpf5pS3OicIXnfx-16" value="Remove Restaurants" style="ellipse;whiteSpace=wrap;html=1;" vertex="1" parent="1">
          <mxGeometry x="210" y="480" width="140" height="70" as="geometry" />
        </mxCell>
        <mxCell id="NGvDMcpf5pS3OicIXnfx-17" value="RestaurantFinder System" style="shape=umlActor;verticalLabelPosition=bottom;verticalAlign=top;html=1;" vertex="1" parent="1">
          <mxGeometry x="700" y="500" width="30" height="60" as="geometry" />
        </mxCell>
        <mxCell id="NGvDMcpf5pS3OicIXnfx-18" value="Find and Show Restaurant Details" style="ellipse;whiteSpace=wrap;html=1;" vertex="1" parent="1">
          <mxGeometry x="457" y="515" width="140" height="70" as="geometry" />
        </mxCell>
        <mxCell id="NGvDMcpf5pS3OicIXnfx-19" value="Display Menu Items and Cost" style="ellipse;whiteSpace=wrap;html=1;" vertex="1" parent="1">
          <mxGeometry x="457" y="600" width="140" height="70" as="geometry" />
        </mxCell>
        <mxCell id="NGvDMcpf5pS3OicIXnfx-20" value="Calculate Total Cost" style="ellipse;whiteSpace=wrap;html=1;" vertex="1" parent="1">
          <mxGeometry x="457" y="690" width="140" height="70" as="geometry" />
        </mxCell>
        <mxCell id="NGvDMcpf5pS3OicIXnfx-26" value="" style="endArrow=none;html=1;exitX=0.5;exitY=0.5;exitDx=0;exitDy=0;exitPerimeter=0;entryX=0;entryY=0.5;entryDx=0;entryDy=0;" edge="1" parent="1" source="NGvDMcpf5pS3OicIXnfx-1" target="NGvDMcpf5pS3OicIXnfx-5">
          <mxGeometry width="50" height="50" relative="1" as="geometry">
            <mxPoint x="150" y="110" as="sourcePoint" />
            <mxPoint x="200" y="60" as="targetPoint" />
          </mxGeometry>
        </mxCell>
        <mxCell id="NGvDMcpf5pS3OicIXnfx-27" value="" style="endArrow=none;html=1;exitX=0.5;exitY=0.5;exitDx=0;exitDy=0;exitPerimeter=0;entryX=0;entryY=0.5;entryDx=0;entryDy=0;" edge="1" parent="1" source="NGvDMcpf5pS3OicIXnfx-1" target="NGvDMcpf5pS3OicIXnfx-6">
          <mxGeometry width="50" height="50" relative="1" as="geometry">
            <mxPoint x="95" y="100" as="sourcePoint" />
            <mxPoint x="200" y="170" as="targetPoint" />
          </mxGeometry>
        </mxCell>
        <mxCell id="NGvDMcpf5pS3OicIXnfx-29" value="" style="endArrow=none;html=1;entryX=0;entryY=0.5;entryDx=0;entryDy=0;exitX=0.5;exitY=0.5;exitDx=0;exitDy=0;exitPerimeter=0;" edge="1" parent="1" source="NGvDMcpf5pS3OicIXnfx-1" target="NGvDMcpf5pS3OicIXnfx-7">
          <mxGeometry width="50" height="50" relative="1" as="geometry">
            <mxPoint x="90" y="90" as="sourcePoint" />
            <mxPoint x="230" y="110" as="targetPoint" />
          </mxGeometry>
        </mxCell>
        <mxCell id="NGvDMcpf5pS3OicIXnfx-30" value="" style="endArrow=none;html=1;exitX=0.5;exitY=0.5;exitDx=0;exitDy=0;exitPerimeter=0;entryX=0;entryY=0.5;entryDx=0;entryDy=0;" edge="1" parent="1" source="NGvDMcpf5pS3OicIXnfx-13" target="NGvDMcpf5pS3OicIXnfx-14">
          <mxGeometry width="50" height="50" relative="1" as="geometry">
            <mxPoint x="95" y="100" as="sourcePoint" />
            <mxPoint x="200" y="350" as="targetPoint" />
          </mxGeometry>
        </mxCell>
        <mxCell id="NGvDMcpf5pS3OicIXnfx-31" value="" style="endArrow=none;html=1;exitX=0.5;exitY=0.5;exitDx=0;exitDy=0;exitPerimeter=0;entryX=0;entryY=0.5;entryDx=0;entryDy=0;" edge="1" parent="1" source="NGvDMcpf5pS3OicIXnfx-13" target="NGvDMcpf5pS3OicIXnfx-15">
          <mxGeometry width="50" height="50" relative="1" as="geometry">
            <mxPoint x="95" y="360" as="sourcePoint" />
            <mxPoint x="220" y="360" as="targetPoint" />
          </mxGeometry>
        </mxCell>
        <mxCell id="NGvDMcpf5pS3OicIXnfx-32" value="" style="endArrow=none;html=1;exitX=0.5;exitY=0.5;exitDx=0;exitDy=0;exitPerimeter=0;entryX=0;entryY=0.5;entryDx=0;entryDy=0;" edge="1" parent="1" source="NGvDMcpf5pS3OicIXnfx-13" target="NGvDMcpf5pS3OicIXnfx-16">
          <mxGeometry width="50" height="50" relative="1" as="geometry">
            <mxPoint x="105" y="370" as="sourcePoint" />
            <mxPoint x="230" y="370" as="targetPoint" />
          </mxGeometry>
        </mxCell>
        <mxCell id="NGvDMcpf5pS3OicIXnfx-33" value="" style="endArrow=none;html=1;exitX=1;exitY=0.5;exitDx=0;exitDy=0;entryX=0.5;entryY=0.5;entryDx=0;entryDy=0;entryPerimeter=0;" edge="1" parent="1" source="NGvDMcpf5pS3OicIXnfx-8" target="NGvDMcpf5pS3OicIXnfx-2">
          <mxGeometry width="50" height="50" relative="1" as="geometry">
            <mxPoint x="570" y="110" as="sourcePoint" />
            <mxPoint x="695" y="110" as="targetPoint" />
          </mxGeometry>
        </mxCell>
        <mxCell id="NGvDMcpf5pS3OicIXnfx-34" value="" style="endArrow=none;html=1;entryX=0.5;entryY=0.5;entryDx=0;entryDy=0;entryPerimeter=0;exitX=1;exitY=0.5;exitDx=0;exitDy=0;" edge="1" parent="1" source="NGvDMcpf5pS3OicIXnfx-9" target="NGvDMcpf5pS3OicIXnfx-2">
          <mxGeometry width="50" height="50" relative="1" as="geometry">
            <mxPoint x="620" y="160" as="sourcePoint" />
            <mxPoint x="745" y="160" as="targetPoint" />
          </mxGeometry>
        </mxCell>
        <mxCell id="NGvDMcpf5pS3OicIXnfx-35" value="" style="endArrow=none;html=1;exitX=1;exitY=0.5;exitDx=0;exitDy=0;entryX=0.5;entryY=0.5;entryDx=0;entryDy=0;entryPerimeter=0;" edge="1" parent="1" source="NGvDMcpf5pS3OicIXnfx-10" target="NGvDMcpf5pS3OicIXnfx-2">
          <mxGeometry width="50" height="50" relative="1" as="geometry">
            <mxPoint x="650" y="190" as="sourcePoint" />
            <mxPoint x="775" y="190" as="targetPoint" />
          </mxGeometry>
        </mxCell>
        <mxCell id="NGvDMcpf5pS3OicIXnfx-36" value="" style="endArrow=none;html=1;exitX=1;exitY=0.5;exitDx=0;exitDy=0;entryX=0.5;entryY=0.5;entryDx=0;entryDy=0;entryPerimeter=0;" edge="1" parent="1" source="NGvDMcpf5pS3OicIXnfx-11" target="NGvDMcpf5pS3OicIXnfx-2">
          <mxGeometry width="50" height="50" relative="1" as="geometry">
            <mxPoint x="607" y="275" as="sourcePoint" />
            <mxPoint x="725" y="100" as="targetPoint" />
          </mxGeometry>
        </mxCell>
        <mxCell id="NGvDMcpf5pS3OicIXnfx-37" value="" style="endArrow=none;html=1;exitX=1;exitY=0.5;exitDx=0;exitDy=0;entryX=0.467;entryY=0.617;entryDx=0;entryDy=0;entryPerimeter=0;" edge="1" parent="1" source="NGvDMcpf5pS3OicIXnfx-12" target="NGvDMcpf5pS3OicIXnfx-2">
          <mxGeometry width="50" height="50" relative="1" as="geometry">
            <mxPoint x="617" y="285" as="sourcePoint" />
            <mxPoint x="735" y="110" as="targetPoint" />
          </mxGeometry>
        </mxCell>
        <mxCell id="NGvDMcpf5pS3OicIXnfx-38" value="" style="endArrow=none;html=1;entryX=0.5;entryY=0.5;entryDx=0;entryDy=0;entryPerimeter=0;exitX=0.971;exitY=0.343;exitDx=0;exitDy=0;exitPerimeter=0;" edge="1" parent="1" source="NGvDMcpf5pS3OicIXnfx-18" target="NGvDMcpf5pS3OicIXnfx-17">
          <mxGeometry width="50" height="50" relative="1" as="geometry">
            <mxPoint x="600" y="550" as="sourcePoint" />
            <mxPoint x="738" y="375" as="targetPoint" />
          </mxGeometry>
        </mxCell>
        <mxCell id="NGvDMcpf5pS3OicIXnfx-39" value="" style="endArrow=none;html=1;entryX=0.5;entryY=0.5;entryDx=0;entryDy=0;entryPerimeter=0;exitX=1;exitY=0.5;exitDx=0;exitDy=0;" edge="1" parent="1" source="NGvDMcpf5pS3OicIXnfx-19" target="NGvDMcpf5pS3OicIXnfx-17">
          <mxGeometry width="50" height="50" relative="1" as="geometry">
            <mxPoint x="602.94" y="549.01" as="sourcePoint" />
            <mxPoint x="725" y="540" as="targetPoint" />
          </mxGeometry>
        </mxCell>
        <mxCell id="NGvDMcpf5pS3OicIXnfx-40" value="" style="endArrow=none;html=1;exitX=1;exitY=0.5;exitDx=0;exitDy=0;entryX=0.5;entryY=0.5;entryDx=0;entryDy=0;entryPerimeter=0;" edge="1" parent="1" source="NGvDMcpf5pS3OicIXnfx-20" target="NGvDMcpf5pS3OicIXnfx-17">
          <mxGeometry width="50" height="50" relative="1" as="geometry">
            <mxPoint x="612.94" y="559.01" as="sourcePoint" />
            <mxPoint x="740" y="550" as="targetPoint" />
          </mxGeometry>
        </mxCell>
      </root>
    </mxGraphModel>
  </diagram>
</mxfile>
